<?xml version="1.0" encoding="UTF-8" standalone="no"?>
<!DOCTYPE svg PUBLIC "-//W3C//DTD SVG 1.1//EN"
 "http://www.w3.org/Graphics/SVG/1.1/DTD/svg11.dtd">
<!-- Generated by graphviz version 2.50.0 (0)
 -->
<!-- Title: classes_data_morph Pages: 1 -->
<svg width="936pt" height="365pt"
 viewBox="0.00 0.00 935.50 364.80" xmlns="http://www.w3.org/2000/svg" xmlns:xlink="http://www.w3.org/1999/xlink">
<g id="graph0" class="graph" transform="scale(1 1) rotate(0) translate(4 360.8)">
<title>classes_data_morph</title>
<polygon fill="white" stroke="transparent" points="-4,4 -4,-360.8 931.5,-360.8 931.5,4 -4,4"/>
<!-- data_morph.shapes.bases.shape.Shape -->
<g id="node1" class="node">
<title>data_morph.shapes.bases.shape.Shape</title>
<polygon fill="none" stroke="black" points="247,-272.5 247,-356.3 476,-356.3 476,-272.5 247,-272.5"/>
<text text-anchor="start" x="344.5" y="-342.1" font-family="Times,serif" font-style="italic" font-size="14.00">Shape</text>
<polyline fill="none" stroke="black" points="247,-333.3 476,-333.3 "/>
<polyline fill="none" stroke="black" points="247,-308.5 476,-308.5 "/>
<text text-anchor="start" x="255" y="-294.3" font-family="Times,serif" font-style="italic" font-size="14.00">distance</text>
<text text-anchor="start" x="301" y="-294.3" font-family="Times,serif" font-size="14.00">(x: Number, y: Number): float</text>
<text text-anchor="start" x="255" y="-280.3" font-family="Times,serif" font-style="italic" font-size="14.00">plot</text>
<text text-anchor="start" x="277" y="-280.3" font-family="Times,serif" font-size="14.00">(ax: Axes): Axes</text>
</g>
<!-- data_morph.shapes.circles.Rings -->
<g id="node2" class="node">
<title>data_morph.shapes.circles.Rings</title>
<polygon fill="none" stroke="black" points="0,-0.5 0,-84.5 227,-84.5 227,-0.5 0,-0.5"/>
<text text-anchor="start" x="97.5" y="-69.3" font-family="Times,serif" font-size="14.00">Rings</text>
<polyline fill="none" stroke="black" points="0,-61.5 227,-61.5 "/>
<text text-anchor="start" x="60.5" y="-46.3" font-family="Times,serif" font-size="14.00">circles : list[Circle]</text>
<polyline fill="none" stroke="black" points="0,-38.5 227,-38.5 "/>
<text text-anchor="start" x="8" y="-23.3" font-family="Times,serif" font-size="14.00">distance(x: Number, y: Number): float</text>
<text text-anchor="start" x="8" y="-8.3" font-family="Times,serif" font-size="14.00">plot(ax: Axes): Axes</text>
</g>
<!-- data_morph.shapes.circles.Rings&#45;&gt;data_morph.shapes.bases.shape.Shape -->
<g id="edge1" class="edge">
<title>data_morph.shapes.circles.Rings&#45;&gt;data_morph.shapes.bases.shape.Shape</title>
<path fill="none" stroke="black" d="M101.33,-84.74C91.55,-127.02 84.16,-192.57 116.5,-236 144.74,-273.91 191.58,-293.7 236.79,-303.87"/>
<polygon fill="none" stroke="black" points="236.2,-307.32 246.7,-305.96 237.64,-300.47 236.2,-307.32"/>
</g>
<!-- data_morph.shapes.circles.Circle -->
<g id="node3" class="node">
<title>data_morph.shapes.circles.Circle</title>
<polygon fill="none" stroke="black" points="126,-121.5 126,-235.5 353,-235.5 353,-121.5 126,-121.5"/>
<text text-anchor="start" x="222.5" y="-220.3" font-family="Times,serif" font-size="14.00">Circle</text>
<polyline fill="none" stroke="black" points="126,-212.5 353,-212.5 "/>
<text text-anchor="start" x="204.5" y="-197.3" font-family="Times,serif" font-size="14.00">cx : Number</text>
<text text-anchor="start" x="204.5" y="-182.3" font-family="Times,serif" font-size="14.00">cy : Number</text>
<text text-anchor="start" x="204.5" y="-167.3" font-family="Times,serif" font-size="14.00">r : Number</text>
<polyline fill="none" stroke="black" points="126,-159.5 353,-159.5 "/>
<text text-anchor="start" x="134" y="-144.3" font-family="Times,serif" font-size="14.00">distance(x: Number, y: Number): float</text>
<text text-anchor="start" x="134" y="-129.3" font-family="Times,serif" font-size="14.00">plot(ax: Axes): Axes</text>
</g>
<!-- data_morph.shapes.circles.Rings&#45;&gt;data_morph.shapes.circles.Circle -->
<g id="edge2" class="edge">
<title>data_morph.shapes.circles.Rings&#45;&gt;data_morph.shapes.circles.Circle</title>
<path fill="none" stroke="black" d="M152.33,-84.8C160.55,-93.54 169.42,-102.97 178.24,-112.35"/>
<polygon fill="black" stroke="black" points="178.44,-112.56 185.46,-114.19 186.66,-121.3 179.64,-119.67 178.44,-112.56"/>
</g>
<!-- data_morph.shapes.circles.Circle&#45;&gt;data_morph.shapes.bases.shape.Shape -->
<g id="edge3" class="edge">
<title>data_morph.shapes.circles.Circle&#45;&gt;data_morph.shapes.bases.shape.Shape</title>
<path fill="none" stroke="black" d="M290.53,-235.51C299.39,-245.24 308.54,-255.28 317.21,-264.79"/>
<polygon fill="none" stroke="black" points="314.71,-267.25 324.04,-272.28 319.89,-262.53 314.71,-267.25"/>
</g>
<!-- data_morph.shapes.bases.line_collection.LineCollection -->
<g id="node4" class="node">
<title>data_morph.shapes.bases.line_collection.LineCollection</title>
<polygon fill="none" stroke="black" points="371,-136.5 371,-220.5 598,-220.5 598,-136.5 371,-136.5"/>
<text text-anchor="start" x="443.5" y="-205.3" font-family="Times,serif" font-size="14.00">LineCollection</text>
<polyline fill="none" stroke="black" points="371,-197.5 598,-197.5 "/>
<text text-anchor="start" x="452.5" y="-182.3" font-family="Times,serif" font-size="14.00">lines : tuple</text>
<polyline fill="none" stroke="black" points="371,-174.5 598,-174.5 "/>
<text text-anchor="start" x="379" y="-159.3" font-family="Times,serif" font-size="14.00">distance(x: Number, y: Number): float</text>
<text text-anchor="start" x="379" y="-144.3" font-family="Times,serif" font-size="14.00">plot(ax: Axes): Axes</text>
</g>
<!-- data_morph.shapes.bases.line_collection.LineCollection&#45;&gt;data_morph.shapes.bases.shape.Shape -->
<g id="edge4" class="edge">
<title>data_morph.shapes.bases.line_collection.LineCollection&#45;&gt;data_morph.shapes.bases.shape.Shape</title>
<path fill="none" stroke="black" d="M446.59,-220.77C433.73,-234.77 419.24,-250.54 405.92,-265.05"/>
<polygon fill="none" stroke="black" points="403.26,-262.77 399.07,-272.5 408.41,-267.5 403.26,-262.77"/>
</g>
<!-- data_morph.shapes.polygons.Diamond -->
<g id="node5" class="node">
<title>data_morph.shapes.polygons.Diamond</title>
<polygon fill="none" stroke="black" points="261.5,-7.1 261.5,-77.9 329.5,-77.9 329.5,-7.1 261.5,-7.1"/>
<text text-anchor="start" x="269.5" y="-62.7" font-family="Times,serif" font-size="14.00">Diamond</text>
<polyline fill="none" stroke="black" points="261.5,-54.9 329.5,-54.9 "/>
<polyline fill="none" stroke="black" points="261.5,-30.1 329.5,-30.1 "/>
<text text-anchor="start" x="293.5" y="-14.9" font-family="Times,serif" font-size="14.00"> </text>
</g>
<!-- data_morph.shapes.polygons.Diamond&#45;&gt;data_morph.shapes.bases.line_collection.LineCollection -->
<g id="edge5" class="edge">
<title>data_morph.shapes.polygons.Diamond&#45;&gt;data_morph.shapes.bases.line_collection.LineCollection</title>
<path fill="none" stroke="black" d="M329.68,-77.65C332.6,-80.21 335.56,-82.69 338.5,-85 359.01,-101.13 382.44,-116.97 404.43,-130.86"/>
<polygon fill="none" stroke="black" points="402.76,-133.95 413.1,-136.29 406.48,-128.01 402.76,-133.95"/>
</g>
<!-- data_morph.shapes.lines.SlantUpLines -->
<g id="node6" class="node">
<title>data_morph.shapes.lines.SlantUpLines</title>
<polygon fill="none" stroke="black" points="348,-7.1 348,-77.9 439,-77.9 439,-7.1 348,-7.1"/>
<text text-anchor="start" x="356" y="-62.7" font-family="Times,serif" font-size="14.00">SlantUpLines</text>
<polyline fill="none" stroke="black" points="348,-54.9 439,-54.9 "/>
<polyline fill="none" stroke="black" points="348,-30.1 439,-30.1 "/>
<text text-anchor="start" x="391.5" y="-14.9" font-family="Times,serif" font-size="14.00"> </text>
</g>
<!-- data_morph.shapes.lines.SlantUpLines&#45;&gt;data_morph.shapes.bases.line_collection.LineCollection -->
<g id="edge6" class="edge">
<title>data_morph.shapes.lines.SlantUpLines&#45;&gt;data_morph.shapes.bases.line_collection.LineCollection</title>
<path fill="none" stroke="black" d="M416.93,-78.01C427.25,-93.2 439.56,-111.32 450.83,-127.92"/>
<polygon fill="none" stroke="black" points="448.1,-130.13 456.61,-136.43 453.89,-126.19 448.1,-130.13"/>
</g>
<!-- data_morph.shapes.polygons.Star -->
<g id="node7" class="node">
<title>data_morph.shapes.polygons.Star</title>
<polygon fill="none" stroke="black" points="457.5,-7.1 457.5,-77.9 511.5,-77.9 511.5,-7.1 457.5,-7.1"/>
<text text-anchor="start" x="473.5" y="-62.7" font-family="Times,serif" font-size="14.00">Star</text>
<polyline fill="none" stroke="black" points="457.5,-54.9 511.5,-54.9 "/>
<polyline fill="none" stroke="black" points="457.5,-30.1 511.5,-30.1 "/>
<text text-anchor="start" x="482.5" y="-14.9" font-family="Times,serif" font-size="14.00"> </text>
</g>
<!-- data_morph.shapes.polygons.Star&#45;&gt;data_morph.shapes.bases.line_collection.LineCollection -->
<g id="edge7" class="edge">
<title>data_morph.shapes.polygons.Star&#45;&gt;data_morph.shapes.bases.line_collection.LineCollection</title>
<path fill="none" stroke="black" d="M484.5,-78.01C484.5,-92.64 484.5,-110 484.5,-126.09"/>
<polygon fill="none" stroke="black" points="481,-126.43 484.5,-136.43 488,-126.43 481,-126.43"/>
</g>
<!-- data_morph.shapes.lines.others -->
<g id="node8" class="node">
<title>data_morph.shapes.lines.others</title>
<polygon fill="none" stroke="black" points="565.5,-60.5 529.5,-60.5 529.5,-24.5 565.5,-24.5 565.5,-60.5"/>
<text text-anchor="start" x="541.5" y="-38.8" font-family="Times,serif" font-size="14.00">...</text>
</g>
<!-- data_morph.shapes.lines.others&#45;&gt;data_morph.shapes.bases.line_collection.LineCollection -->
<g id="edge8" class="edge">
<title>data_morph.shapes.lines.others&#45;&gt;data_morph.shapes.bases.line_collection.LineCollection</title>
<path fill="none" stroke="black" d="M539.39,-60.74C531.5,-77.53 519.12,-103.86 508.11,-127.27"/>
<polygon fill="none" stroke="black" points="504.9,-125.88 503.82,-136.41 511.24,-128.85 504.9,-125.88"/>
</g>
<!-- data_morph.shapes.bases.point_collection.PointCollection -->
<g id="node9" class="node">
<title>data_morph.shapes.bases.point_collection.PointCollection</title>
<polygon fill="none" stroke="black" points="633,-136.5 633,-220.5 860,-220.5 860,-136.5 633,-136.5"/>
<text text-anchor="start" x="704" y="-205.3" font-family="Times,serif" font-size="14.00">PointCollection</text>
<polyline fill="none" stroke="black" points="633,-197.5 860,-197.5 "/>
<text text-anchor="start" x="703.5" y="-182.3" font-family="Times,serif" font-size="14.00">points : ndarray</text>
<polyline fill="none" stroke="black" points="633,-174.5 860,-174.5 "/>
<text text-anchor="start" x="641" y="-159.3" font-family="Times,serif" font-size="14.00">distance(x: Number, y: Number): float</text>
<text text-anchor="start" x="641" y="-144.3" font-family="Times,serif" font-size="14.00">plot(ax: Axes): Axes</text>
</g>
<!-- data_morph.shapes.bases.point_collection.PointCollection&#45;&gt;data_morph.shapes.bases.shape.Shape -->
<g id="edge9" class="edge">
<title>data_morph.shapes.bases.point_collection.PointCollection&#45;&gt;data_morph.shapes.bases.shape.Shape</title>
<path fill="none" stroke="black" d="M647.44,-220.58C633.75,-225.94 619.82,-231.22 606.5,-236 567.6,-249.97 524.77,-263.96 485.95,-276.14"/>
<polygon fill="none" stroke="black" points="484.67,-272.87 476.17,-279.19 486.76,-279.55 484.67,-272.87"/>
</g>
<!-- data_morph.shapes.points.Heart -->
<g id="node10" class="node">
<title>data_morph.shapes.points.Heart</title>
<polygon fill="none" stroke="black" points="583.5,-7.1 583.5,-77.9 637.5,-77.9 637.5,-7.1 583.5,-7.1"/>
<text text-anchor="start" x="595" y="-62.7" font-family="Times,serif" font-size="14.00">Heart</text>
<polyline fill="none" stroke="black" points="583.5,-54.9 637.5,-54.9 "/>
<polyline fill="none" stroke="black" points="583.5,-30.1 637.5,-30.1 "/>
<text text-anchor="start" x="608.5" y="-14.9" font-family="Times,serif" font-size="14.00"> </text>
</g>
<!-- data_morph.shapes.points.Heart&#45;&gt;data_morph.shapes.bases.point_collection.PointCollection -->
<g id="edge10" class="edge">
<title>data_morph.shapes.points.Heart&#45;&gt;data_morph.shapes.bases.point_collection.PointCollection</title>
<path fill="none" stroke="black" d="M637.67,-75.54C640.6,-78.78 643.58,-81.99 646.5,-85 660.99,-99.96 677.35,-115.58 692.58,-129.63"/>
<polygon fill="none" stroke="black" points="690.21,-132.21 699.95,-136.39 694.94,-127.05 690.21,-132.21"/>
</g>
<!-- data_morph.shapes.points.Scatter -->
<g id="node11" class="node">
<title>data_morph.shapes.points.Scatter</title>
<polygon fill="none" stroke="black" points="656,-7.1 656,-77.9 873,-77.9 873,-7.1 656,-7.1"/>
<text text-anchor="start" x="745.5" y="-62.7" font-family="Times,serif" font-size="14.00">Scatter</text>
<polyline fill="none" stroke="black" points="656,-54.9 873,-54.9 "/>
<polyline fill="none" stroke="black" points="656,-30.1 873,-30.1 "/>
<text text-anchor="start" x="664" y="-14.9" font-family="Times,serif" font-size="14.00">distance(x: Number, y: Number): int</text>
</g>
<!-- data_morph.shapes.points.Scatter&#45;&gt;data_morph.shapes.bases.point_collection.PointCollection -->
<g id="edge11" class="edge">
<title>data_morph.shapes.points.Scatter&#45;&gt;data_morph.shapes.bases.point_collection.PointCollection</title>
<path fill="none" stroke="black" d="M759.86,-78.01C757.9,-92.64 755.57,-110 753.41,-126.09"/>
<polygon fill="none" stroke="black" points="749.88,-126.06 752.02,-136.43 756.82,-126.99 749.88,-126.06"/>
</g>
<!-- data_morph.shapes.points.others -->
<g id="node12" class="node">
<title>data_morph.shapes.points.others</title>
<polygon fill="none" stroke="black" points="927.5,-60.5 891.5,-60.5 891.5,-24.5 927.5,-24.5 927.5,-60.5"/>
<text text-anchor="start" x="903.5" y="-38.8" font-family="Times,serif" font-size="14.00">...</text>
</g>
<!-- data_morph.shapes.points.others&#45;&gt;data_morph.shapes.bases.point_collection.PointCollection -->
<g id="edge12" class="edge">
<title>data_morph.shapes.points.others&#45;&gt;data_morph.shapes.bases.point_collection.PointCollection</title>
<path fill="none" stroke="black" d="M900.37,-60.77C895.68,-68.69 889.48,-77.88 882.5,-85 866.06,-101.78 846.15,-117.32 826.69,-130.69"/>
<polygon fill="none" stroke="black" points="824.73,-127.8 818.39,-136.29 828.64,-133.6 824.73,-127.8"/>
</g>
</g>
</svg>
