<?xml version="1.0" encoding="UTF-8" standalone="no"?>
<!DOCTYPE svg PUBLIC "-//W3C//DTD SVG 1.1//EN"
 "http://www.w3.org/Graphics/SVG/1.1/DTD/svg11.dtd">
<!-- Generated by graphviz version 2.50.0 (0)
 -->
<!-- Title: classes_data_morph Pages: 1 -->
<svg width="936pt" height="378pt"
 viewBox="0.00 0.00 936.00 378.00" xmlns="http://www.w3.org/2000/svg" xmlns:xlink="http://www.w3.org/1999/xlink">
<g id="graph0" class="graph" transform="scale(1 1) rotate(0) translate(4 374)">
<title>classes_data_morph</title>
<polygon fill="white" stroke="transparent" points="-4,4 -4,-374 932,-374 932,4 -4,4"/>
<!-- src.data_morph.shapes.circles.placeholder -->
<g id="node1" class="node">
<title>src.data_morph.shapes.circles.placeholder</title>
<polygon fill="none" stroke="black" points="0,-32 0,-68 54,-68 54,-32 0,-32"/>
<text text-anchor="start" x="21" y="-46.3" font-family="Times,serif" font-size="14.00">...</text>
</g>
<!-- src.data_morph.shapes.circles.Rings -->
<g id="node8" class="node">
<title>src.data_morph.shapes.circles.Rings</title>
<polygon fill="none" stroke="black" points="57.5,-151.5 57.5,-235.5 284.5,-235.5 284.5,-151.5 57.5,-151.5"/>
<text text-anchor="start" x="155" y="-220.3" font-family="Times,serif" font-size="14.00">Rings</text>
<polyline fill="none" stroke="black" points="57.5,-212.5 284.5,-212.5 "/>
<text text-anchor="start" x="118" y="-197.3" font-family="Times,serif" font-size="14.00">circles : list[Circle]</text>
<polyline fill="none" stroke="black" points="57.5,-189.5 284.5,-189.5 "/>
<text text-anchor="start" x="65.5" y="-174.3" font-family="Times,serif" font-size="14.00">distance(x: Number, y: Number): float</text>
<text text-anchor="start" x="65.5" y="-159.3" font-family="Times,serif" font-size="14.00">plot(ax: Axes | None): Axes</text>
</g>
<!-- src.data_morph.shapes.circles.placeholder&#45;&gt;src.data_morph.shapes.circles.Rings -->
<g id="edge14" class="edge">
<title>src.data_morph.shapes.circles.placeholder&#45;&gt;src.data_morph.shapes.circles.Rings</title>
<path fill="none" stroke="black" d="M38.11,-68.07C44.81,-77.85 53.81,-90.1 63,-100 77.43,-115.55 94.34,-131.08 110.45,-144.86"/>
<polygon fill="none" stroke="black" points="108.38,-147.69 118.27,-151.47 112.89,-142.35 108.38,-147.69"/>
</g>
<!-- src.data_morph.shapes.circles.Circle -->
<g id="node2" class="node">
<title>src.data_morph.shapes.circles.Circle</title>
<polygon fill="none" stroke="black" points="72.5,-0.5 72.5,-99.5 299.5,-99.5 299.5,-0.5 72.5,-0.5"/>
<text text-anchor="start" x="169" y="-84.3" font-family="Times,serif" font-size="14.00">Circle</text>
<polyline fill="none" stroke="black" points="72.5,-76.5 299.5,-76.5 "/>
<text text-anchor="start" x="141" y="-61.3" font-family="Times,serif" font-size="14.00">center : ndarray</text>
<text text-anchor="start" x="141" y="-46.3" font-family="Times,serif" font-size="14.00">radius : Number</text>
<polyline fill="none" stroke="black" points="72.5,-38.5 299.5,-38.5 "/>
<text text-anchor="start" x="80.5" y="-23.3" font-family="Times,serif" font-size="14.00">distance(x: Number, y: Number): float</text>
<text text-anchor="start" x="80.5" y="-8.3" font-family="Times,serif" font-size="14.00">plot(ax: Axes | None): Axes</text>
</g>
<!-- src.data_morph.shapes.circles.Circle&#45;&gt;src.data_morph.shapes.circles.Rings -->
<g id="edge13" class="edge">
<title>src.data_morph.shapes.circles.Circle&#45;&gt;src.data_morph.shapes.circles.Rings</title>
<path fill="none" stroke="black" d="M180.84,-99.7C179.49,-112.42 178.03,-126.2 176.66,-139.15"/>
<polygon fill="black" stroke="black" points="176.64,-139.32 179.98,-145.7 175.37,-151.25 172.03,-144.86 176.64,-139.32"/>
<text text-anchor="middle" x="197" y="-121.8" font-family="Times,serif" font-size="14.00" fill="green">circles</text>
</g>
<!-- src.data_morph.shapes.bases.shape.Shape -->
<g id="node9" class="node">
<title>src.data_morph.shapes.bases.shape.Shape</title>
<polygon fill="none" stroke="black" points="239.5,-273.5 239.5,-369.5 468.5,-369.5 468.5,-273.5 239.5,-273.5"/>
<text text-anchor="start" x="337" y="-354.3" font-family="Times,serif" font-size="14.00">Shape</text>
<polyline fill="none" stroke="black" points="239.5,-346.5 468.5,-346.5 "/>
<text text-anchor="start" x="306.5" y="-331.3" font-family="Times,serif" font-size="14.00">name : str | None</text>
<polyline fill="none" stroke="black" points="239.5,-323.5 468.5,-323.5 "/>
<text text-anchor="start" x="247.5" y="-309.3" font-family="Times,serif" font-style="italic" font-size="14.00">distance</text>
<text text-anchor="start" x="293.5" y="-309.3" font-family="Times,serif" font-size="14.00">(x: Number, y: Number): float</text>
<text text-anchor="start" x="247.5" y="-295.3" font-family="Times,serif" font-size="14.00">get_name(): str</text>
<text text-anchor="start" x="247.5" y="-281.3" font-family="Times,serif" font-style="italic" font-size="14.00">plot</text>
<text text-anchor="start" x="269.5" y="-281.3" font-family="Times,serif" font-size="14.00">(ax: Axes | None): Axes</text>
</g>
<!-- src.data_morph.shapes.circles.Circle&#45;&gt;src.data_morph.shapes.bases.shape.Shape -->
<g id="edge3" class="edge">
<title>src.data_morph.shapes.circles.Circle&#45;&gt;src.data_morph.shapes.bases.shape.Shape</title>
<path fill="none" stroke="black" d="M247.86,-99.53C264.21,-114.66 280.69,-132.31 293,-151 305.5,-169.98 323.47,-222.05 336.67,-263.51"/>
<polygon fill="none" stroke="black" points="333.4,-264.78 339.75,-273.26 340.07,-262.67 333.4,-264.78"/>
</g>
<!-- src.data_morph.shapes.points.club.Club -->
<g id="node3" class="node">
<title>src.data_morph.shapes.points.club.Club</title>
<polygon fill="none" stroke="black" points="658,-14.6 658,-85.4 712,-85.4 712,-14.6 658,-14.6"/>
<text text-anchor="start" x="671.5" y="-70.2" font-family="Times,serif" font-size="14.00">Club</text>
<polyline fill="none" stroke="black" points="658,-62.4 712,-62.4 "/>
<polyline fill="none" stroke="black" points="658,-37.6 712,-37.6 "/>
<text text-anchor="start" x="683" y="-22.4" font-family="Times,serif" font-size="14.00"> </text>
</g>
<!-- src.data_morph.shapes.bases.point_collection.PointCollection -->
<g id="node7" class="node">
<title>src.data_morph.shapes.bases.point_collection.PointCollection</title>
<polygon fill="none" stroke="black" points="643.5,-151.5 643.5,-235.5 870.5,-235.5 870.5,-151.5 643.5,-151.5"/>
<text text-anchor="start" x="714.5" y="-220.3" font-family="Times,serif" font-size="14.00">PointCollection</text>
<polyline fill="none" stroke="black" points="643.5,-212.5 870.5,-212.5 "/>
<text text-anchor="start" x="714" y="-197.3" font-family="Times,serif" font-size="14.00">points : ndarray</text>
<polyline fill="none" stroke="black" points="643.5,-189.5 870.5,-189.5 "/>
<text text-anchor="start" x="651.5" y="-174.3" font-family="Times,serif" font-size="14.00">distance(x: Number, y: Number): float</text>
<text text-anchor="start" x="651.5" y="-159.3" font-family="Times,serif" font-size="14.00">plot(ax: Axes | None): Axes</text>
</g>
<!-- src.data_morph.shapes.points.club.Club&#45;&gt;src.data_morph.shapes.bases.point_collection.PointCollection -->
<g id="edge9" class="edge">
<title>src.data_morph.shapes.points.club.Club&#45;&gt;src.data_morph.shapes.bases.point_collection.PointCollection</title>
<path fill="none" stroke="black" d="M702.61,-85.61C711.31,-102.7 721.96,-123.63 731.52,-142.43"/>
<polygon fill="none" stroke="black" points="728.46,-144.13 736.11,-151.45 734.7,-140.95 728.46,-144.13"/>
</g>
<!-- src.data_morph.shapes.lines.diamond.Diamond -->
<g id="node4" class="node">
<title>src.data_morph.shapes.lines.diamond.Diamond</title>
<polygon fill="none" stroke="black" points="318,-14.6 318,-85.4 386,-85.4 386,-14.6 318,-14.6"/>
<text text-anchor="start" x="326" y="-70.2" font-family="Times,serif" font-size="14.00">Diamond</text>
<polyline fill="none" stroke="black" points="318,-62.4 386,-62.4 "/>
<polyline fill="none" stroke="black" points="318,-37.6 386,-37.6 "/>
<text text-anchor="start" x="350" y="-22.4" font-family="Times,serif" font-size="14.00"> </text>
</g>
<!-- src.data_morph.shapes.bases.line_collection.LineCollection -->
<g id="node6" class="node">
<title>src.data_morph.shapes.bases.line_collection.LineCollection</title>
<polygon fill="none" stroke="black" points="341.5,-151.5 341.5,-235.5 568.5,-235.5 568.5,-151.5 341.5,-151.5"/>
<text text-anchor="start" x="414" y="-220.3" font-family="Times,serif" font-size="14.00">LineCollection</text>
<polyline fill="none" stroke="black" points="341.5,-212.5 568.5,-212.5 "/>
<text text-anchor="start" x="415.5" y="-197.3" font-family="Times,serif" font-size="14.00">lines : ndarray</text>
<polyline fill="none" stroke="black" points="341.5,-189.5 568.5,-189.5 "/>
<text text-anchor="start" x="349.5" y="-174.3" font-family="Times,serif" font-size="14.00">distance(x: Number, y: Number): float</text>
<text text-anchor="start" x="349.5" y="-159.3" font-family="Times,serif" font-size="14.00">plot(ax: Axes | None): Axes</text>
</g>
<!-- src.data_morph.shapes.lines.diamond.Diamond&#45;&gt;src.data_morph.shapes.bases.line_collection.LineCollection -->
<g id="edge5" class="edge">
<title>src.data_morph.shapes.lines.diamond.Diamond&#45;&gt;src.data_morph.shapes.bases.line_collection.LineCollection</title>
<path fill="none" stroke="black" d="M377.2,-85.61C389.8,-102.93 405.28,-124.2 419.11,-143.19"/>
<polygon fill="none" stroke="black" points="416.41,-145.43 425.12,-151.45 422.07,-141.31 416.41,-145.43"/>
</g>
<!-- src.data_morph.shapes.points.heart.Heart -->
<g id="node5" class="node">
<title>src.data_morph.shapes.points.heart.Heart</title>
<polygon fill="none" stroke="black" points="730,-14.6 730,-85.4 784,-85.4 784,-14.6 730,-14.6"/>
<text text-anchor="start" x="741.5" y="-70.2" font-family="Times,serif" font-size="14.00">Heart</text>
<polyline fill="none" stroke="black" points="730,-62.4 784,-62.4 "/>
<polyline fill="none" stroke="black" points="730,-37.6 784,-37.6 "/>
<text text-anchor="start" x="755" y="-22.4" font-family="Times,serif" font-size="14.00"> </text>
</g>
<!-- src.data_morph.shapes.points.heart.Heart&#45;&gt;src.data_morph.shapes.bases.point_collection.PointCollection -->
<g id="edge10" class="edge">
<title>src.data_morph.shapes.points.heart.Heart&#45;&gt;src.data_morph.shapes.bases.point_collection.PointCollection</title>
<path fill="none" stroke="black" d="M757,-85.61C757,-102.39 757,-122.87 757,-141.4"/>
<polygon fill="none" stroke="black" points="753.5,-141.45 757,-151.45 760.5,-141.45 753.5,-141.45"/>
</g>
<!-- src.data_morph.shapes.bases.line_collection.LineCollection&#45;&gt;src.data_morph.shapes.bases.shape.Shape -->
<g id="edge1" class="edge">
<title>src.data_morph.shapes.bases.line_collection.LineCollection&#45;&gt;src.data_morph.shapes.bases.shape.Shape</title>
<path fill="none" stroke="black" d="M421.93,-235.76C414.3,-245.27 406.07,-255.54 398.06,-265.53"/>
<polygon fill="none" stroke="black" points="395.22,-263.48 391.7,-273.47 400.68,-267.86 395.22,-263.48"/>
</g>
<!-- src.data_morph.shapes.bases.point_collection.PointCollection&#45;&gt;src.data_morph.shapes.bases.shape.Shape -->
<g id="edge2" class="edge">
<title>src.data_morph.shapes.bases.point_collection.PointCollection&#45;&gt;src.data_morph.shapes.bases.shape.Shape</title>
<path fill="none" stroke="black" d="M643.4,-230.02C592.01,-246.08 531.14,-265.12 478.51,-281.57"/>
<polygon fill="none" stroke="black" points="477.28,-278.29 468.78,-284.61 479.37,-284.97 477.28,-278.29"/>
</g>
<!-- src.data_morph.shapes.circles.Rings&#45;&gt;src.data_morph.shapes.bases.shape.Shape -->
<g id="edge4" class="edge">
<title>src.data_morph.shapes.circles.Rings&#45;&gt;src.data_morph.shapes.bases.shape.Shape</title>
<path fill="none" stroke="black" d="M230.67,-235.58C245.45,-245.76 261.5,-256.81 276.99,-267.48"/>
<polygon fill="none" stroke="black" points="275.3,-270.56 285.52,-273.35 279.27,-264.8 275.3,-270.56"/>
</g>
<!-- src.data_morph.shapes.lines.slant_up.SlantUpLines -->
<g id="node10" class="node">
<title>src.data_morph.shapes.lines.slant_up.SlantUpLines</title>
<polygon fill="none" stroke="black" points="404.5,-15.5 404.5,-84.5 495.5,-84.5 495.5,-15.5 404.5,-15.5"/>
<text text-anchor="start" x="412.5" y="-69.3" font-family="Times,serif" font-size="14.00">SlantUpLines</text>
<polyline fill="none" stroke="black" points="404.5,-61.5 495.5,-61.5 "/>
<text text-anchor="start" x="422.5" y="-46.3" font-family="Times,serif" font-size="14.00">name : str</text>
<polyline fill="none" stroke="black" points="404.5,-38.5 495.5,-38.5 "/>
<text text-anchor="start" x="448" y="-23.3" font-family="Times,serif" font-size="14.00"> </text>
</g>
<!-- src.data_morph.shapes.lines.slant_up.SlantUpLines&#45;&gt;src.data_morph.shapes.bases.line_collection.LineCollection -->
<g id="edge6" class="edge">
<title>src.data_morph.shapes.lines.slant_up.SlantUpLines&#45;&gt;src.data_morph.shapes.bases.line_collection.LineCollection</title>
<path fill="none" stroke="black" d="M451.18,-84.53C451.78,-101.43 452.52,-122.28 453.19,-141.14"/>
<polygon fill="none" stroke="black" points="449.7,-141.5 453.55,-151.37 456.69,-141.26 449.7,-141.5"/>
</g>
<!-- src.data_morph.shapes.points.spade.Spade -->
<g id="node11" class="node">
<title>src.data_morph.shapes.points.spade.Spade</title>
<polygon fill="none" stroke="black" points="802,-14.6 802,-85.4 856,-85.4 856,-14.6 802,-14.6"/>
<text text-anchor="start" x="812" y="-70.2" font-family="Times,serif" font-size="14.00">Spade</text>
<polyline fill="none" stroke="black" points="802,-62.4 856,-62.4 "/>
<polyline fill="none" stroke="black" points="802,-37.6 856,-37.6 "/>
<text text-anchor="start" x="827" y="-22.4" font-family="Times,serif" font-size="14.00"> </text>
</g>
<!-- src.data_morph.shapes.points.spade.Spade&#45;&gt;src.data_morph.shapes.bases.point_collection.PointCollection -->
<g id="edge11" class="edge">
<title>src.data_morph.shapes.points.spade.Spade&#45;&gt;src.data_morph.shapes.bases.point_collection.PointCollection</title>
<path fill="none" stroke="black" d="M811.39,-85.61C802.69,-102.7 792.04,-123.63 782.48,-142.43"/>
<polygon fill="none" stroke="black" points="779.3,-140.95 777.89,-151.45 785.54,-144.13 779.3,-140.95"/>
</g>
<!-- src.data_morph.shapes.lines.star.Star -->
<g id="node12" class="node">
<title>src.data_morph.shapes.lines.star.Star</title>
<polygon fill="none" stroke="black" points="514,-14.6 514,-85.4 568,-85.4 568,-14.6 514,-14.6"/>
<text text-anchor="start" x="530" y="-70.2" font-family="Times,serif" font-size="14.00">Star</text>
<polyline fill="none" stroke="black" points="514,-62.4 568,-62.4 "/>
<polyline fill="none" stroke="black" points="514,-37.6 568,-37.6 "/>
<text text-anchor="start" x="539" y="-22.4" font-family="Times,serif" font-size="14.00"> </text>
</g>
<!-- src.data_morph.shapes.lines.star.Star&#45;&gt;src.data_morph.shapes.bases.line_collection.LineCollection -->
<g id="edge7" class="edge">
<title>src.data_morph.shapes.lines.star.Star&#45;&gt;src.data_morph.shapes.bases.line_collection.LineCollection</title>
<path fill="none" stroke="black" d="M519.96,-85.61C509.53,-102.78 496.74,-123.82 485.28,-142.68"/>
<polygon fill="none" stroke="black" points="482.15,-141.09 479.95,-151.45 488.13,-144.73 482.15,-141.09"/>
</g>
<!-- src.data_morph.shapes.lines.placeholder -->
<g id="node13" class="node">
<title>src.data_morph.shapes.lines.placeholder</title>
<polygon fill="none" stroke="black" points="586,-32 586,-68 640,-68 640,-32 586,-32"/>
<text text-anchor="start" x="607" y="-46.3" font-family="Times,serif" font-size="14.00">...</text>
</g>
<!-- src.data_morph.shapes.lines.placeholder&#45;&gt;src.data_morph.shapes.bases.line_collection.LineCollection -->
<g id="edge8" class="edge">
<title>src.data_morph.shapes.lines.placeholder&#45;&gt;src.data_morph.shapes.bases.line_collection.LineCollection</title>
<path fill="none" stroke="black" d="M602.11,-68.28C595.48,-78.12 586.48,-90.37 577,-100 561.15,-116.09 542.38,-131.7 524.37,-145.36"/>
<polygon fill="none" stroke="black" points="522.08,-142.7 516.16,-151.49 526.27,-148.31 522.08,-142.7"/>
</g>
<!-- src.data_morph.shapes.points.placeholder -->
<g id="node14" class="node">
<title>src.data_morph.shapes.points.placeholder</title>
<polygon fill="none" stroke="black" points="874,-32 874,-68 928,-68 928,-32 874,-32"/>
<text text-anchor="start" x="895" y="-46.3" font-family="Times,serif" font-size="14.00">...</text>
</g>
<!-- src.data_morph.shapes.points.placeholder&#45;&gt;src.data_morph.shapes.bases.point_collection.PointCollection -->
<g id="edge12" class="edge">
<title>src.data_morph.shapes.points.placeholder&#45;&gt;src.data_morph.shapes.bases.point_collection.PointCollection</title>
<path fill="none" stroke="black" d="M889.89,-68.07C883.19,-77.85 874.19,-90.1 865,-100 850.57,-115.55 833.66,-131.08 817.55,-144.86"/>
<polygon fill="none" stroke="black" points="815.11,-142.35 809.73,-151.47 819.62,-147.69 815.11,-142.35"/>
</g>
</g>
</svg>
